# Max2Obj Version 4.0 Mar 10th, 2001
#
# object (null) to come ...
#
v  -1.561423659 3.783077478 6.110800743
v  -4.450086594 -0.589867055 5.825838089
v  -2.540313959 6.655487061 1.828365803
v  -6.033964634 4.057789803 -1.103287220
v  -7.214268684 -0.420085728 1.367286563
v  -1.175003529 -4.681974411 5.548882484
v  3.737771988 -2.838091850 5.662677765
v  3.498950958 2.393598318 6.009961605
v  1.915073276 7.041254997 -0.919163346
v  5.647544384 4.407262802 1.665205240
v  6.033964634 -4.057789803 1.103287220
v  7.214268684 0.420085728 -1.367286563
v  1.175003529 4.681974411 -5.548882484
v  4.450086594 0.589867055 -5.825838089
v  2.540313959 -6.655487061 -1.828365803
v  1.561423659 -3.783077478 -6.110800743
v  -3.737771988 2.838091850 -5.662677765
v  -3.498950958 -2.393598318 -6.009961605
v  -1.915073276 -7.041254997 0.919163346
v  -5.647544384 -4.407262802 -1.665205240
v  -4.360011578 2.697280407 2.805800915
v  0.010041914 -0.386651576 5.831632137
v  1.391966224 4.856136322 2.939034224
v  5.226500034 0.065013096 2.614768982
v  4.080395222 3.428089142 -2.399193287
v  4.360011578 -2.697280407 -2.805800915
v  -0.010041913 0.386651605 -5.831632137
v  -1.391966224 -4.856136322 -2.939034224
v  -5.226500034 -0.065013096 -2.614768982
v  -4.080395222 -3.428089142 2.399193287
v  1.844394803 -5.054919720 2.281129122
v  -1.844394803 5.054919720 -2.281129122
v  0.000000604 -0.000000904 8.137423515
v  7.278333664 0.000000221 3.639166594
v  2.249128819 6.922106743 3.639166832
v  -5.888296127 4.278095722 3.639166117
v  -5.888295174 -4.278098583 3.639165878
v  2.249130011 -6.922106743 3.639166355
v  5.888295174 4.278097630 -3.639165878
v  -2.249129295 6.922106266 -3.639166117
v  -7.278334141 -0.000000742 -3.639166832
v  -2.249129534 -6.922106266 -3.639166832
v  5.888297081 -4.278094292 -3.639166117
v  -0.000000604 0.000000904 -8.137423515
# 44 vertices

vt  0.000000000 0.223606795 0.361803412
vt  0.190982997 0.000000000 0.500000000
vt  0.309016973 0.309016973 0.309016973
vt  0.000000000 0.223606795 0.361803412
vt  0.309016973 0.309016973 0.309016973
vt  0.000000000 0.500000000 0.190982997
vt  0.000000000 0.223606795 0.361803412
vt  0.000000000 0.500000000 0.190982997
vt  -0.309016973 0.309016973 0.309016973
vt  0.000000000 0.223606795 0.361803412
vt  -0.309016973 0.309016973 0.309016973
vt  -0.190982997 0.000000000 0.500000000
vt  0.000000000 0.223606795 0.361803412
vt  -0.190982997 0.000000000 0.500000000
vt  0.190982997 0.000000000 0.500000000
vt  -0.000000000 -0.223606795 0.361803412
vt  -0.190982997 0.000000000 0.500000000
vt  -0.309016973 -0.309016973 0.309016973
vt  -0.000000000 -0.223606795 0.361803412
vt  -0.309016973 -0.309016973 0.309016973
vt  -0.000000000 -0.500000000 0.190982997
vt  -0.000000000 -0.223606795 0.361803412
vt  -0.000000000 -0.500000000 0.190982997
vt  0.309016973 -0.309016973 0.309016973
vt  -0.000000000 -0.223606795 0.361803412
vt  0.309016973 -0.309016973 0.309016973
vt  0.190982997 0.000000000 0.500000000
vt  -0.000000000 -0.223606795 0.361803412
vt  0.190982997 0.000000000 0.500000000
vt  -0.190982997 0.000000000 0.500000000
vt  -0.000000000 0.223606795 0.361803412
vt  -0.309016973 0.309016973 0.309016973
vt  -0.190982997 0.000000000 0.500000000
vt  -0.000000000 0.223606795 0.361803412
vt  -0.190982997 0.000000000 0.500000000
vt  0.190982997 0.000000000 0.500000000
vt  -0.000000000 0.223606795 0.361803412
vt  0.190982997 0.000000000 0.500000000
vt  0.309016973 0.309016973 0.309016973
vt  -0.000000000 0.223606795 0.361803412
vt  0.309016973 0.309016973 0.309016973
vt  0.000000000 0.500000000 0.190982997
vt  -0.000000000 0.223606795 0.361803412
vt  0.000000000 0.500000000 0.190982997
vt  -0.309016973 0.309016973 0.309016973
vt  0.000000000 0.223606795 -0.361803412
vt  0.309016973 0.309016973 -0.309016973
vt  0.190982997 -0.000000000 -0.500000000
vt  0.000000000 0.223606795 -0.361803412
vt  0.190982997 -0.000000000 -0.500000000
vt  -0.190982997 0.000000000 -0.500000000
vt  0.000000000 0.223606795 -0.361803412
vt  -0.190982997 0.000000000 -0.500000000
vt  -0.309016973 0.309016973 -0.309016973
vt  0.000000000 0.223606795 -0.361803412
vt  -0.309016973 0.309016973 -0.309016973
vt  0.000000000 0.500000000 -0.190982997
vt  0.000000000 0.223606795 -0.361803412
vt  0.000000000 0.500000000 -0.190982997
vt  0.309016973 0.309016973 -0.309016973
vt  -0.000000000 -0.223606795 0.361803412
vt  -0.309016973 -0.309016973 0.309016973
vt  -0.000000000 -0.500000000 0.190982997
vt  -0.000000000 -0.223606795 0.361803412
vt  -0.000000000 -0.500000000 0.190982997
vt  0.309016973 -0.309016973 0.309016973
vt  -0.000000000 -0.223606795 0.361803412
vt  0.309016973 -0.309016973 0.309016973
vt  0.190982997 0.000000000 0.500000000
vt  -0.000000000 -0.223606795 0.361803412
vt  0.190982997 0.000000000 0.500000000
vt  -0.190982997 0.000000000 0.500000000
vt  -0.000000000 -0.223606795 0.361803412
vt  -0.190982997 0.000000000 0.500000000
vt  -0.309016973 -0.309016973 0.309016973
vt  0.000000000 -0.223606795 -0.361803412
vt  0.309016973 -0.309016973 -0.309016973
vt  0.000000000 -0.500000000 -0.190982997
vt  0.000000000 -0.223606795 -0.361803412
vt  0.000000000 -0.500000000 -0.190982997
vt  -0.309016973 -0.309016973 -0.309016973
vt  0.000000000 -0.223606795 -0.361803412
vt  -0.309016973 -0.309016973 -0.309016973
vt  -0.190982997 -0.000000000 -0.500000000
vt  0.000000000 -0.223606795 -0.361803412
vt  -0.190982997 -0.000000000 -0.500000000
vt  0.190982997 -0.000000000 -0.500000000
vt  0.000000000 -0.223606795 -0.361803412
vt  0.190982997 -0.000000000 -0.500000000
vt  0.309016973 -0.309016973 -0.309016973
vt  0.000000000 0.223606795 -0.361803412
vt  -0.190982997 -0.000000000 -0.500000000
vt  -0.309016973 0.309016973 -0.309016973
vt  0.000000000 0.223606795 -0.361803412
vt  -0.309016973 0.309016973 -0.309016973
vt  0.000000000 0.500000000 -0.190982997
vt  0.000000000 0.223606795 -0.361803412
vt  0.000000000 0.500000000 -0.190982997
vt  0.309016973 0.309016973 -0.309016973
vt  0.000000000 0.223606795 -0.361803412
vt  0.309016973 0.309016973 -0.309016973
vt  0.190982997 -0.000000000 -0.500000000
vt  0.000000000 0.223606795 -0.361803412
vt  0.190982997 -0.000000000 -0.500000000
vt  -0.190982997 -0.000000000 -0.500000000
vt  0.000000000 -0.223606795 -0.361803412
vt  -0.000000000 -0.500000000 -0.190982997
vt  -0.309016973 -0.309016973 -0.309016973
vt  0.000000000 -0.223606795 -0.361803412
vt  -0.309016973 -0.309016973 -0.309016973
vt  -0.190982997 -0.000000000 -0.500000000
vt  0.000000000 -0.223606795 -0.361803412
vt  -0.190982997 -0.000000000 -0.500000000
vt  0.190982997 -0.000000000 -0.500000000
vt  0.000000000 -0.223606795 -0.361803412
vt  0.190982997 -0.000000000 -0.500000000
vt  0.309016973 -0.309016973 -0.309016973
vt  0.000000000 -0.223606795 -0.361803412
vt  0.309016973 -0.309016973 -0.309016973
vt  -0.000000000 -0.500000000 -0.190982997
vt  -0.000000000 -0.223606795 0.361803412
vt  -0.000000000 -0.500000000 0.190982997
vt  0.309016973 -0.309016973 0.309016973
vt  -0.000000000 -0.223606795 0.361803412
vt  0.309016973 -0.309016973 0.309016973
vt  0.190982997 0.000000000 0.500000000
vt  -0.000000000 -0.223606795 0.361803412
vt  0.190982997 0.000000000 0.500000000
vt  -0.190982997 0.000000000 0.500000000
vt  -0.000000000 -0.223606795 0.361803412
vt  -0.190982997 0.000000000 0.500000000
vt  -0.309016973 -0.309016973 0.309016973
vt  -0.000000000 -0.223606795 0.361803412
vt  -0.309016973 -0.309016973 0.309016973
vt  -0.000000000 -0.500000000 0.190982997
vt  0.000000000 0.223606795 -0.361803412
vt  0.190982997 -0.000000000 -0.500000000
vt  -0.190982997 -0.000000000 -0.500000000
vt  0.000000000 0.223606795 -0.361803412
vt  -0.190982997 -0.000000000 -0.500000000
vt  -0.309016973 0.309016973 -0.309016973
vt  0.000000000 0.223606795 -0.361803412
vt  -0.309016973 0.309016973 -0.309016973
vt  0.000000000 0.500000000 -0.190982997
vt  0.000000000 0.223606795 -0.361803412
vt  0.000000000 0.500000000 -0.190982997
vt  0.309016973 0.309016973 -0.309016973
vt  0.000000000 0.223606795 -0.361803412
vt  0.309016973 0.309016973 -0.309016973
vt  0.190982997 -0.000000000 -0.500000000
vt  -0.000000000 -0.223606795 -0.361803412
vt  -0.000000000 -0.500000000 -0.190982997
vt  -0.309016973 -0.309016973 -0.309016973
vt  -0.000000000 -0.223606795 -0.361803412
vt  -0.309016973 -0.309016973 -0.309016973
vt  -0.190982997 0.000000000 -0.500000000
vt  -0.000000000 -0.223606795 -0.361803412
vt  -0.190982997 0.000000000 -0.500000000
vt  0.190982997 -0.000000000 -0.500000000
vt  -0.000000000 -0.223606795 -0.361803412
vt  0.190982997 -0.000000000 -0.500000000
vt  0.309016973 -0.309016973 -0.309016973
vt  -0.000000000 -0.223606795 -0.361803412
vt  0.309016973 -0.309016973 -0.309016973
vt  -0.000000000 -0.500000000 -0.190982997
vt  0.000000000 0.223606795 0.361803412
vt  0.190982997 0.000000000 0.500000000
vt  0.309016973 0.309016973 0.309016973
vt  0.000000000 0.223606795 0.361803412
vt  0.309016973 0.309016973 0.309016973
vt  0.000000000 0.500000000 0.190982997
vt  0.000000000 0.223606795 0.361803412
vt  0.000000000 0.500000000 0.190982997
vt  -0.309016973 0.309016973 0.309016973
vt  0.000000000 0.223606795 0.361803412
vt  -0.309016973 0.309016973 0.309016973
vt  -0.190982997 0.000000000 0.500000000
vt  0.000000000 0.223606795 0.361803412
vt  -0.190982997 0.000000000 0.500000000
vt  0.190982997 0.000000000 0.500000000
vt  0.400000006 1.000000000 3.000000000
vt  0.500000000 0.647583604 2.999999762
vt  0.699999988 0.647583604 3.000000000
vt  0.899999976 0.647583604 2.999999762
vt  0.100000024 0.647583604 3.000000000
vt  0.300000012 0.647583604 2.999999762
vt  0.599999964 0.352416366 2.999999762
vt  0.800000012 0.352416366 2.999999762
vt  0.000000028 0.352416396 2.999999762
vt  0.199999988 0.352416366 2.999999762
vt  0.400000066 0.352416396 3.000000000
vt  0.500000000 0.000000014 3.000000000
vt  0.600000024 1.000000000 3.000000000
vt  0.799999952 1.000000000 3.000000000
vt  0.000000000 1.000000000 3.000000000
vt  -0.100000024 0.647583604 2.999999762
vt  0.200000018 1.000000000 3.000000000
vt  -0.100000024 0.647583604 2.999999762
vt  -0.199999988 0.352416366 2.999999762
vt  -0.100000024 0.647583604 2.999999762
vt  0.699999988 0.000000014 3.000000000
vt  -0.099999979 0.000000014 3.000000000
vt  -0.199999988 0.352416366 2.999999762
vt  0.100000009 0.000000014 3.000000000
vt  0.300000012 0.000000014 3.000000000
# 205 texture vertices

vn  -1.828891873 1.131427050 1.176947832
vn  -1.828891993 1.131426811 1.176947832
vn  -1.828891873 1.131427050 1.176947832
vn  -1.828891873 1.131427050 1.176947832
vn  -1.828891993 1.131426811 1.176947832
vn  0.004212264 -0.162188739 2.446192026
vn  0.004212255 -0.162188753 2.446192026
vn  0.004212452 -0.162188455 2.446192026
vn  0.583887398 2.037001133 1.232835174
vn  0.583887458 2.037000895 1.232835412
vn  2.192357540 0.027270978 1.096815825
vn  2.192357540 0.027271062 1.096815705
vn  1.711601377 1.437978864 -1.006388545
vn  1.711601615 1.437978745 -1.006388426
vn  1.828891873 -1.131427050 -1.176947832
vn  1.828891873 -1.131427050 -1.176947832
vn  -0.004212452 0.162188455 -2.446192026
vn  -0.004212442 0.162188470 -2.446192026
vn  -0.583887219 -2.037001133 -1.232835174
vn  -0.583887398 -2.037001133 -1.232835174
vn  -1.828891873 1.131427050 1.176947832
vn  0.004212264 -0.162188739 2.446192026
vn  0.583887458 2.037000895 1.232835412
vn  2.192357540 0.027271137 1.096816063
vn  1.711601615 1.437978745 -1.006388426
vn  1.828891993 -1.131426811 -1.176947832
vn  -0.004212442 0.162188470 -2.446192026
vn  -0.583887219 -2.037001133 -1.232835174
vn  -2.192357540 -0.027271058 -1.096815705
vn  -1.711601496 -1.437978983 1.006388307
vn  0.773667336 -2.120384932 0.956863880
vn  -0.773667336 2.120384693 -0.956863880
vn  0.000000148 -0.000000257 2.451566458
vn  2.192748070 0.000000053 1.096374035
vn  0.677596450 2.085427761 1.096373796
vn  -1.773970604 1.288864851 1.096373558
vn  -1.773970127 -1.288865685 1.096373677
vn  0.677596748 -2.085427761 1.096373677
vn  1.773970246 1.288865805 -1.096373439
vn  -0.677596629 2.085427761 -1.096373796
vn  -2.192748308 -0.000000162 -1.096373916
vn  -0.677596331 -2.085427523 -1.096373796
vn  1.773970604 -1.288864493 -1.096373677
vn  -0.000000254 0.000000342 -2.451566458
# 44 vertex normals

g (null)
f 21/1/21 1/2/1 3/3/3
f 21/4/21 3/5/3 4/6/4
f 21/7/21 4/8/4 5/9/5
f 21/10/21 5/11/5 2/12/2
f 21/13/21 2/14/2 1/15/1
f 22/16/22 2/17/2 6/18/6
f 22/19/22 6/20/6 7/21/7
f 22/22/22 7/23/7 8/24/8
f 22/25/22 8/26/8 1/27/1
f 22/28/22 1/29/1 2/30/2
f 23/31/23 8/32/8 10/33/10
f 23/34/23 10/35/10 9/36/9
f 23/37/23 9/38/9 3/39/3
f 23/40/23 3/41/3 1/42/1
f 23/43/23 1/44/1 8/45/8
f 24/46/24 8/47/8 7/48/7
f 24/49/24 7/50/7 11/51/11
f 24/52/24 11/53/11 12/54/12
f 24/55/24 12/56/12 10/57/10
f 24/58/24 10/59/10 8/60/8
f 25/61/25 12/62/12 14/63/14
f 25/64/25 14/65/14 13/66/13
f 25/67/25 13/68/13 9/69/9
f 25/70/25 9/71/9 10/72/10
f 25/73/25 10/74/10 12/75/12
f 26/76/26 12/77/12 11/78/11
f 26/79/26 11/80/11 15/81/15
f 26/82/26 15/83/15 16/84/16
f 26/85/26 16/86/16 14/87/14
f 26/88/26 14/89/14 12/90/12
f 27/91/27 16/92/16 18/93/18
f 27/94/27 18/95/18 17/96/17
f 27/97/27 17/98/17 13/99/13
f 27/100/27 13/101/13 14/102/14
f 27/103/27 14/104/14 16/105/16
f 28/106/28 16/107/16 15/108/15
f 28/109/28 15/110/15 19/111/19
f 28/112/28 19/113/19 20/114/20
f 28/115/28 20/116/20 18/117/18
f 28/118/28 18/119/18 16/120/16
f 29/121/29 20/122/20 5/123/5
f 29/124/29 5/125/5 4/126/4
f 29/127/29 4/128/4 17/129/17
f 29/130/29 17/131/17 18/132/18
f 29/133/29 18/134/18 20/135/20
f 30/136/30 20/137/20 19/138/19
f 30/139/30 19/140/19 6/141/6
f 30/142/30 6/143/6 2/144/2
f 30/145/30 2/146/2 5/147/5
f 30/148/30 5/149/5 20/150/20
f 31/151/31 19/152/19 15/153/15
f 31/154/31 15/155/15 11/156/11
f 31/157/31 11/158/11 7/159/7
f 31/160/31 7/161/7 6/162/6
f 31/163/31 6/164/6 19/165/19
f 32/166/32 4/167/4 3/168/3
f 32/169/32 3/170/3 9/171/9
f 32/172/32 9/173/9 13/174/13
f 32/175/32 13/176/13 17/177/17
f 32/178/32 17/179/17 4/180/4
f 33/193/33 34/182/34 35/183/35
f 33/194/33 35/183/35 36/184/36
f 33/195/33 36/196/36 37/185/37
f 33/197/33 37/185/37 38/186/38
f 33/181/33 38/186/38 34/182/34
f 34/182/34 43/191/43 39/187/39
f 35/183/35 39/187/39 40/188/40
f 36/198/36 40/199/40 41/189/41
f 37/185/37 41/189/41 42/190/42
f 38/186/38 42/190/42 43/191/43
f 39/187/39 35/183/35 34/182/34
f 40/188/40 36/184/36 35/183/35
f 41/189/41 37/185/37 36/200/36
f 42/190/42 38/186/38 37/185/37
f 43/191/43 34/182/34 38/186/38
f 44/201/44 40/188/40 39/187/39
f 44/202/44 41/189/41 40/203/40
f 44/204/44 42/190/42 41/189/41
f 44/205/44 43/191/43 42/190/42
f 44/192/44 39/187/39 43/191/43
# 80 faces

g
