# Max2Obj Version 4.0 Mar 10th, 2001
#
# object (null) to come ...
#
v  0.000000000 0.000000000 5.000000000
v  5.000000000 0.000000000 0.000000000
v  0.000000000 5.000000000 0.000000000
v  -5.000000000 0.000000000 0.000000000
v  0.000000000 -5.000000000 0.000000000
v  0.000000000 0.000000000 -5.000000000
v  2.500000000 0.000000000 4.330127239
v  4.330127239 0.000000000 2.500000000
v  0.000000000 2.500000000 4.330127239
v  0.000000000 4.330127239 2.500000000
v  -2.500000000 0.000000000 4.330127239
v  -4.330127239 0.000000000 2.500000000
v  0.000000000 -2.500000000 4.330127239
v  0.000000000 -4.330127239 2.500000000
v  2.500000000 0.000000000 -4.330127239
v  4.330127239 0.000000000 -2.500000000
v  0.000000000 2.500000000 -4.330127239
v  0.000000000 4.330127239 -2.500000000
v  -2.500000000 0.000000000 -4.330127239
v  -4.330127239 0.000000000 -2.500000000
v  0.000000000 -2.500000000 -4.330127239
v  0.000000000 -4.330127239 -2.500000000
v  4.330127239 2.500000000 0.000000000
v  2.500000000 4.330127239 0.000000000
v  -2.500000000 4.330127239 0.000000000
v  -4.330127239 2.500000000 0.000000000
v  -4.330127239 -2.500000000 0.000000000
v  -2.500000000 -4.330127239 0.000000000
v  2.500000000 -4.330127239 0.000000000
v  4.330127239 -2.500000000 0.000000000
v  2.738612890 2.738612890 3.162277699
v  -2.738612890 2.738612890 3.162277699
v  -2.738612890 -2.738612890 3.162277699
v  2.738612890 -2.738612890 3.162277699
v  2.738612890 2.738612890 -3.162277699
v  -2.738612890 2.738612890 -3.162277699
v  -2.738612890 -2.738612890 -3.162277699
v  2.738612890 -2.738612890 -3.162277699
# 38 vertices

vt  0.375000000 1.000000000 5.000000000
vt  0.500000000 0.500000000 5.000000000
vt  0.750000000 0.500000000 5.000000000
vt  1.000000000 0.500000000 5.000000000
vt  0.250000000 0.500000000 5.000000000
vt  0.375000000 0.000000014 5.000000000
vt  0.500000000 0.833333313 5.000000000
vt  0.500000000 0.666666627 5.000000000
vt  0.750000000 0.833333313 5.000000000
vt  0.750000000 0.666666627 5.000000000
vt  1.000000000 0.833333313 5.000000000
vt  1.000000000 0.666666627 5.000000000
vt  0.250000000 0.833333313 5.000000000
vt  0.250000000 0.666666627 5.000000000
vt  0.500000000 0.166666672 5.000000000
vt  0.500000000 0.333333343 5.000000000
vt  0.750000000 0.166666672 5.000000000
vt  0.750000000 0.333333343 5.000000000
vt  1.000000000 0.166666672 5.000000000
vt  1.000000000 0.333333343 5.000000000
vt  0.250000000 0.166666672 5.000000000
vt  0.250000000 0.333333343 5.000000000
vt  0.583333313 0.500000000 5.000000000
vt  0.666666687 0.500000000 5.000000000
vt  0.833333313 0.500000000 5.000000000
vt  0.916666627 0.500000000 5.000000000
vt  0.083333343 0.500000000 5.000000000
vt  0.166666672 0.500000000 5.000000000
vt  0.333333343 0.500000000 5.000000000
vt  0.416666657 0.500000000 5.000000000
vt  0.625000000 0.717952847 5.000000000
vt  0.875000000 0.717952847 5.000000000
vt  0.125000015 0.717952847 5.000000000
vt  0.375000000 0.717952847 5.000000000
vt  0.625000000 0.282047123 5.000000000
vt  0.875000000 0.282047123 5.000000000
vt  0.125000015 0.282047123 5.000000000
vt  0.375000000 0.282047123 5.000000000
vt  0.625000000 1.000000000 5.000000000
vt  0.875000000 1.000000000 5.000000000
vt  0.125000000 1.000000000 5.000000000
vt  0.000000000 0.833333313 5.000000000
vt  0.000000000 0.833333313 5.000000000
vt  0.000000000 0.666666627 5.000000000
vt  0.000000000 0.833333313 5.000000000
vt  0.000000000 0.666666627 5.000000000
vt  0.000000000 0.500000000 5.000000000
vt  0.000000000 0.666666627 5.000000000
vt  0.625000000 0.000000014 5.000000000
vt  0.875000000 0.000000014 5.000000000
vt  0.125000000 0.000000014 5.000000000
vt  0.000000000 0.166666672 5.000000000
vt  0.000000000 0.166666672 5.000000000
vt  0.000000000 0.166666672 5.000000000
vt  0.000000000 0.333333343 5.000000000
vt  0.000000000 0.333333343 5.000000000
vt  0.000000000 0.333333343 5.000000000
vt  0.000000000 0.500000000 5.000000000
# 58 texture vertices

vn  0.000000004 0.000000002 1.000000000
vn  1.000000000 0.000000002 0.000000002
vn  0.000000002 1.000000000 0.000000002
vn  -1.000000000 0.000000002 0.000000002
vn  -0.000000002 -1.000000000 0.000000002
vn  0.000000004 0.000000002 -1.000000000
vn  0.491702288 -0.000000005 0.870763361
vn  0.870746553 -0.000000003 0.491732061
vn  -0.000000004 0.491702288 0.870763361
vn  -0.000000004 0.870746553 0.491732061
vn  -0.491702288 -0.000000004 0.870763361
vn  -0.870746553 -0.000000004 0.491732061
vn  0.000000004 -0.491702288 0.870763361
vn  0.000000004 -0.870746553 0.491732061
vn  0.491702288 -0.000000004 -0.870763361
vn  0.870746553 -0.000000004 -0.491732061
vn  -0.000000005 0.491702288 -0.870763361
vn  -0.000000003 0.870746553 -0.491732061
vn  -0.491702288 -0.000000005 -0.870763361
vn  -0.870746553 -0.000000003 -0.491732061
vn  0.000000005 -0.491702288 -0.870763361
vn  0.000000003 -0.870746553 -0.491732061
vn  0.863000691 0.505202711 -0.000000000
vn  0.505202711 0.863000691 -0.000000006
vn  -0.505202711 0.863000691 -0.000000000
vn  -0.863000691 0.505202711 -0.000000006
vn  -0.863000691 -0.505202711 -0.000000000
vn  -0.505202711 -0.863000691 -0.000000006
vn  0.505202711 -0.863000691 -0.000000000
vn  0.863000691 -0.505202711 -0.000000006
vn  0.559340894 0.559340894 0.611780584
vn  -0.559340894 0.559340894 0.611780584
vn  -0.559340894 -0.559340894 0.611780584
vn  0.559340894 -0.559340894 0.611780584
vn  0.559340894 0.559340894 -0.611780584
vn  -0.559340894 0.559340894 -0.611780584
vn  -0.559340894 -0.559340894 -0.611780584
vn  0.559340894 -0.559340894 -0.611780584
# 38 vertex normals

g (null)
f 1/39/1 7/7/7 9/9/9
f 7/7/7 8/8/8 31/31/31
f 7/7/7 31/31/31 9/9/9
f 9/9/9 31/31/31 10/10/10
f 8/8/8 2/2/2 23/23/23
f 8/8/8 23/23/23 31/31/31
f 31/31/31 23/23/23 24/24/24
f 31/31/31 24/24/24 10/10/10
f 10/10/10 24/24/24 3/3/3
f 1/40/1 9/9/9 11/11/11
f 9/9/9 10/10/10 32/32/32
f 9/9/9 32/32/32 11/11/11
f 11/11/11 32/32/32 12/12/12
f 10/10/10 3/3/3 25/25/25
f 10/10/10 25/25/25 32/32/32
f 32/32/32 25/25/25 26/26/26
f 32/32/32 26/26/26 12/12/12
f 12/12/12 26/26/26 4/4/4
f 1/41/1 11/42/11 13/13/13
f 11/43/11 12/44/12 33/33/33
f 11/45/11 33/33/33 13/13/13
f 13/13/13 33/33/33 14/14/14
f 12/46/12 4/47/4 27/27/27
f 12/48/12 27/27/27 33/33/33
f 33/33/33 27/27/27 28/28/28
f 33/33/33 28/28/28 14/14/14
f 14/14/14 28/28/28 5/5/5
f 1/1/1 13/13/13 7/7/7
f 13/13/13 14/14/14 34/34/34
f 13/13/13 34/34/34 7/7/7
f 7/7/7 34/34/34 8/8/8
f 14/14/14 5/5/5 29/29/29
f 14/14/14 29/29/29 34/34/34
f 34/34/34 29/29/29 30/30/30
f 34/34/34 30/30/30 8/8/8
f 8/8/8 30/30/30 2/2/2
f 6/49/6 17/17/17 15/15/15
f 17/17/17 18/18/18 35/35/35
f 17/17/17 35/35/35 15/15/15
f 15/15/15 35/35/35 16/16/16
f 18/18/18 3/3/3 24/24/24
f 18/18/18 24/24/24 35/35/35
f 35/35/35 24/24/24 23/23/23
f 35/35/35 23/23/23 16/16/16
f 16/16/16 23/23/23 2/2/2
f 6/50/6 19/19/19 17/17/17
f 19/19/19 20/20/20 36/36/36
f 19/19/19 36/36/36 17/17/17
f 17/17/17 36/36/36 18/18/18
f 20/20/20 4/4/4 26/26/26
f 20/20/20 26/26/26 36/36/36
f 36/36/36 26/26/26 25/25/25
f 36/36/36 25/25/25 18/18/18
f 18/18/18 25/25/25 3/3/3
f 6/51/6 21/21/21 19/52/19
f 21/21/21 22/22/22 37/37/37
f 21/21/21 37/37/37 19/53/19
f 19/54/19 37/37/37 20/55/20
f 22/22/22 5/5/5 28/28/28
f 22/22/22 28/28/28 37/37/37
f 37/37/37 28/28/28 27/27/27
f 37/37/37 27/27/27 20/56/20
f 20/57/20 27/27/27 4/58/4
f 6/6/6 15/15/15 21/21/21
f 15/15/15 16/16/16 38/38/38
f 15/15/15 38/38/38 21/21/21
f 21/21/21 38/38/38 22/22/22
f 16/16/16 2/2/2 30/30/30
f 16/16/16 30/30/30 38/38/38
f 38/38/38 30/30/30 29/29/29
f 38/38/38 29/29/29 22/22/22
f 22/22/22 29/29/29 5/5/5
# 72 faces

g
