# Max2Obj Version 4.0 Mar 10th, 2001
#
# object (null) to come ...
#
v  0.000000000 0.000000000 11.371920586
v  11.371920586 0.000000000 0.000000000
v  0.000000000 11.371920586 0.000000000
v  -11.371920586 0.000000000 0.000000000
v  0.000000000 -11.371920586 0.000000000
v  0.000000000 0.000000000 -11.371920586
# 6 vertices

vt  0.375000000 0.999999940 11.371920586
vt  0.500000000 0.500000000 11.371920586
vt  0.750000000 0.500000000 11.371920586
vt  1.000000000 0.500000000 11.371920586
vt  0.250000000 0.500000000 11.371920586
vt  0.375000000 0.000000019 11.371920586
vt  0.625000000 0.999999940 11.371920586
vt  0.875000000 0.999999940 11.371920586
vt  0.125000000 0.999999940 11.371920586
vt  0.000000000 0.500000000 11.371920586
vt  0.625000000 0.000000019 11.371920586
vt  0.875000000 0.000000019 11.371920586
vt  0.125000000 0.000000019 11.371920586
vt  0.000000000 0.500000000 11.371920586
# 14 texture vertices

vn  0.000000006 -0.000000006 1.000000000
vn  1.000000000 -0.000000006 -0.000000006
vn  -0.000000006 1.000000000 -0.000000006
vn  -1.000000000 -0.000000006 -0.000000006
vn  0.000000006 -1.000000000 -0.000000006
vn  0.000000006 -0.000000006 -1.000000000
# 6 vertex normals

g (null)
f 1/7/1 2/2/2 3/3/3
f 1/8/1 3/3/3 4/4/4
f 1/9/1 4/10/4 5/5/5
f 1/1/1 5/5/5 2/2/2
f 6/11/6 3/3/3 2/2/2
f 6/12/6 4/4/4 3/3/3
f 6/13/6 5/5/5 4/14/4
f 6/6/6 2/2/2 5/5/5
# 8 faces

g
